<?xml version="1.0" encoding="UTF-8" standalone="no"?>
<!-- Created with Inkscape (http://www.inkscape.org/) -->

<svg
   width="177.62988mm"
   height="135.41138mm"
   viewBox="0 0 177.62988 135.41138"
   version="1.1"
   id="svg5"
   inkscape:version="1.1.2 (b8e25be833, 2022-02-05)"
   sodipodi:docname="disc.svg"
   xmlns:inkscape="http://www.inkscape.org/namespaces/inkscape"
   xmlns:sodipodi="http://sodipodi.sourceforge.net/DTD/sodipodi-0.dtd"
   xmlns="http://www.w3.org/2000/svg"
   xmlns:svg="http://www.w3.org/2000/svg">
  <sodipodi:namedview
     id="namedview7"
     pagecolor="#505050"
     bordercolor="#eeeeee"
     borderopacity="1"
     inkscape:pageshadow="0"
     inkscape:pageopacity="0"
     inkscape:pagecheckerboard="0"
     inkscape:document-units="mm"
     showgrid="false"
     inkscape:zoom="0.74029882"
     inkscape:cx="491.01794"
     inkscape:cy="251.24989"
     inkscape:window-width="1920"
     inkscape:window-height="1017"
     inkscape:window-x="-8"
     inkscape:window-y="32"
     inkscape:window-maximized="1"
     inkscape:current-layer="layer1" />
  <defs
     id="defs2" />
  <g
     inkscape:label="Layer 1"
     inkscape:groupmode="layer"
     id="layer1"
     transform="translate(63.443471,-42.67618)">
    <path
       d="M 86.937656,53.899599 A 146.48962,146.48962 0 0 0 50.777575,42.68588 a 0.54819545,0.54819545 0 0 0 -0.582892,0.274098 102.04415,102.04415 0 0 0 -4.51047,9.24993 135.23774,135.23774 0 0 0 -40.6115675,0 93.592229,93.592229 0 0 0 -4.57292152,-9.24993 0.569013,0.569013 0 0 0 -0.58289137,-0.274098 146.0698,146.0698 0 0 0 -36.14620361,11.213719 0.51696913,0.51696913 0 0 0 -0.239403,0.204706 C -59.496451,88.512244 -65.804169,122.0736 -62.709294,155.21167 a 0.6106481,0.6106481 0 0 0 0.232463,0.41635 147.31191,147.31191 0 0 0 44.358727,22.42397 0.57595219,0.57595219 0 0 0 0.624527,-0.2047 105.28475,105.28475 0 0 0 9.0729813,-14.75965 0.56207381,0.56207381 0 0 0 -0.3087936,-0.78066 97.009777,97.009777 0 0 1 -13.8575487,-6.59222 0.569013,0.569013 0 0 1 -0.05551,-0.94373 c 0.92985,-0.69391 1.86317,-1.42253 2.751386,-2.15809 a 0.54819545,0.54819545 0 0 1 0.572482,-0.0763 c 29.0717079,13.27465 60.547841,13.27465 89.276058,0 a 0.54819545,0.54819545 0 0 1 0.582892,0.0694 c 0.888215,0.73208 1.821536,1.46764 2.775673,2.16503 a 0.569013,0.569013 0 0 1 -0.04857,0.94373 91.031671,91.031671 0 0 1 -13.878365,6.59222 0.56554341,0.56554341 0 0 0 -0.301855,0.79107 118.21592,118.21592 0 0 0 9.066043,14.7527 0.56207381,0.56207381 0 0 0 0.624526,0.21165 146.82271,146.82271 0 0 0 44.410768,-22.42397 0.569013,0.569013 0 0 0 0.23246,-0.40942 C 117.12657,116.91085 107.21742,83.62359 87.156241,54.118184 A 0.45104689,0.45104689 0 0 0 86.937656,53.899599 Z M -4.0836064,135.03599 c -8.7537796,0 -15.9601206,-8.03557 -15.9601206,-17.90309 0,-9.86752 7.071027,-17.903091 15.9601206,-17.903091 8.9619548,0 16.1058444,8.104971 15.9601214,17.903091 0.0069,9.86752 -7.0675584,17.90309 -15.9601214,17.90309 z m 59.0281594,0 c -8.753779,0 -15.960121,-8.03557 -15.960121,-17.90309 0,-9.86752 7.071027,-17.903091 15.960121,-17.903091 8.961955,0 16.105844,8.104971 15.960122,17.903091 0.0034,9.86752 -6.998167,17.90309 -15.960122,17.90309 z"
       style="fill:#ffffff;stroke-width:0.346959"
       id="path836"
       inkscape:export-filename="C:\Users\ghatzz\Desktop\Linux archive\images\disc.png"
       inkscape:export-xdpi="96"
       inkscape:export-ydpi="96" />
  </g>
</svg>
