<?xml version="1.0" encoding="UTF-8" standalone="no"?>
<!-- Created with Inkscape (http://www.inkscape.org/) -->

<svg
   width="123.855mm"
   height="123.855mm"
   viewBox="0 0 123.855 123.855"
   version="1.1"
   id="svg5"
   inkscape:version="1.1.2 (b8e25be833, 2022-02-05)"
   sodipodi:docname="github.svg"
   xmlns:inkscape="http://www.inkscape.org/namespaces/inkscape"
   xmlns:sodipodi="http://sodipodi.sourceforge.net/DTD/sodipodi-0.dtd"
   xmlns="http://www.w3.org/2000/svg"
   xmlns:svg="http://www.w3.org/2000/svg">
  <sodipodi:namedview
     id="namedview7"
     pagecolor="#505050"
     bordercolor="#eeeeee"
     borderopacity="1"
     inkscape:pageshadow="0"
     inkscape:pageopacity="0"
     inkscape:pagecheckerboard="0"
     inkscape:document-units="mm"
     showgrid="false"
     inkscape:zoom="0.74029882"
     inkscape:cx="83.074562"
     inkscape:cy="328.24583"
     inkscape:window-width="1920"
     inkscape:window-height="1017"
     inkscape:window-x="-8"
     inkscape:window-y="32"
     inkscape:window-maximized="1"
     inkscape:current-layer="layer1" />
  <defs
     id="defs2" />
  <g
     inkscape:label="Layer 1"
     inkscape:groupmode="layer"
     id="layer1">
    <path
       style="opacity:0.984127;fill:#ffffff;stroke-width:0.357402"
       d="M 39.953996,120.93143 C 37.09842,119.79667 32.844007,117.75208 30.482876,116.3798 19.064742,109.7436 8.6011422,97.1684 4.2039962,84.79772 -2.4894258,65.966842 -0.27304973,46.095129 10.336037,29.818711 19.899943,15.145809 35.494867,5.0304633 52.61058,2.3981503 c 3.948002,-0.607184 14.990683,-0.694839 18.109621,-0.143751 4.877126,0.861744 6.241186,1.183489 10.058066,2.372433 14.40491,4.487069 27.023143,14.6794667 34.652243,27.9903877 3.96598,6.919674 6.31367,13.602988 7.61861,21.688353 0.53384,3.307694 0.53492,14.257869 0.002,17.868992 -1.19101,8.066735 -3.51556,14.756675 -7.60473,21.886125 -2.07566,3.61884 -2.66127,4.47384 -5.2832,7.71357 -3.73623,4.61657 -8.58897,9.18973 -13.382263,12.6113 -4.09967,2.92644 -14.16184,7.58184 -16.38737,7.58184 -0.47706,0 -1.24706,-0.30719 -1.71113,-0.68264 l -0.84374,-0.68263 -0.20207,-11.73704 c -0.14639,-8.50328 -0.33097,-12.03245 -0.66995,-12.80924 -0.25734,-0.58972 -0.64563,-1.47428 -0.86287,-1.96571 -0.21724,-0.49142 -0.76232,-1.39405 -1.21128,-2.00583 l -0.81629,-1.11233 4.10803,-0.79572 c 7.16005,-1.38688 12.1681,-3.78482 16.07651,-7.6977 4.42317,-4.4282 6.395363,-9.369476 7.355783,-18.429595 0.78033,-7.361227 -0.76067,-13.549151 -4.681423,-18.798309 -1.24958,-1.67295 -1.34373,-1.950697 -1.02987,-3.037906 1.27917,-4.430954 1.15019,-8.557125 -0.40917,-13.089486 -0.76744,-2.230601 -1.10723,-2.568397 -2.59156,-2.576385 -2.58266,-0.01389 -10.70304,3.283593 -14.28059,5.798987 -1.0855,0.76323 -1.24148,0.755496 -5.78886,-0.286997 -2.278927,-0.522448 -4.41871,-0.659241 -10.543322,-0.674015 -6.754209,-0.0163 -8.16792,0.08359 -11.681973,0.825402 l -3.99786,0.843939 -2.077952,-1.25739 c -1.775815,-1.074563 -4.018383,-2.180034 -7.081565,-3.490844 -3.269382,-1.39905 -6.968374,-2.095345 -7.918712,-1.490615 -0.227312,0.144648 -0.778534,1.388621 -1.224939,2.764383 -0.969761,2.988699 -1.15181,8.83186 -0.373949,12.002606 l 0.489617,1.995802 -1.350828,1.756905 c -4.189804,5.44931 -5.727561,13.316042 -4.26409,21.813879 2.420017,14.052149 9.558167,20.783819 24.766706,23.356359 l 2.61839,0.44291 -0.701704,0.76683 c -0.978487,1.0693 -2.033836,3.29875 -2.570713,5.43071 -0.414125,1.64453 -0.577191,1.843 -1.837398,2.23631 -0.760617,0.23738 -2.553761,0.60575 -3.98476,0.81858 -2.172542,0.32313 -2.933872,0.29045 -4.614312,-0.19807 -2.618153,-0.76112 -4.862121,-2.50646 -6.541135,-5.08765 -3.052673,-4.69294 -6.527686,-7.22641 -10.303203,-7.51157 -1.558947,-0.11775 -2.398624,-0.019 -2.870847,0.33754 -0.63072,0.47625 -0.635075,0.56655 -0.07917,1.64157 0.323549,0.62567 1.196739,1.5217 1.940422,1.99116 2.333314,1.47296 4.661589,4.43641 6.496,8.26817 1.947898,4.06881 3.391597,5.72707 6.147317,7.06092 2.739961,1.32622 5.67581,1.77897 10.588733,1.63293 l 4.311007,-0.12815 0.106291,5.36101 c 0.05846,2.94856 -0.02138,5.88182 -0.177395,6.51836 -0.526658,2.14857 -2.266722,2.38755 -6.149525,0.84459 z"
       id="path873" />
  </g>
</svg>
