<?xml version="1.0" encoding="UTF-8" standalone="no"?>
<!-- Created with Inkscape (http://www.inkscape.org/) -->

<svg
   width="242.226mm"
   height="198.562mm"
   viewBox="0 0 242.226 198.562"
   version="1.1"
   id="svg938"
   inkscape:version="1.1.2 (b8e25be833, 2022-02-05)"
   sodipodi:docname="twttr.svg"
   xmlns:inkscape="http://www.inkscape.org/namespaces/inkscape"
   xmlns:sodipodi="http://sodipodi.sourceforge.net/DTD/sodipodi-0.dtd"
   xmlns="http://www.w3.org/2000/svg"
   xmlns:svg="http://www.w3.org/2000/svg">
  <sodipodi:namedview
     id="namedview940"
     pagecolor="#505050"
     bordercolor="#eeeeee"
     borderopacity="1"
     inkscape:pageshadow="0"
     inkscape:pageopacity="0"
     inkscape:pagecheckerboard="0"
     inkscape:document-units="mm"
     showgrid="false"
     inkscape:zoom="0.37014941"
     inkscape:cx="-530.86671"
     inkscape:cy="5.4032235"
     inkscape:window-width="1920"
     inkscape:window-height="1017"
     inkscape:window-x="-8"
     inkscape:window-y="32"
     inkscape:window-maximized="1"
     inkscape:current-layer="layer1"
     height="198.562mm" />
  <defs
     id="defs935" />
  <g
     inkscape:label="Layer 1"
     inkscape:groupmode="layer"
     id="layer1">
    <path
       style="opacity:0.984127;fill:#ffffff;stroke-width:0.357402"
       d="m 63.617121,198.06737 c -8.18453,-0.66218 -14.19515,-1.63177 -22.51625,-3.63217 -5.20884,-1.25221 -14.30152,-4.16164 -17.82515,-5.70361 -1.05646,-0.46231 -2.05198,-0.84056 -2.21227,-0.84056 -0.56408,0 -11.31067,-5.18372 -14.8091496,-7.14334 -2.4239997,-1.35777 -6.25450971942,-3.65522 -6.25450971942,-3.75131 0,-0.0502 3.25682001942,-0.0123 7.23736971942,0.0841 7.0501196,0.17072 15.0643696,-0.23695 18.6741796,-0.94992 6.62144,-1.30778 8.20681,-1.65502 11.07943,-2.42669 4.96228,-1.33303 9.6039,-2.94063 13.22382,-4.58001 3.58922,-1.62548 8.83293,-4.23716 10.36462,-5.1622 0.98286,-0.59357 2.02246,-1.19217 2.31024,-1.33022 0.95883,-0.45996 4.80552,-3.05893 7.4875,-5.05884 2.92114,-2.17825 2.88227,-2.48095 -0.32662,-2.54352 -1.89447,-0.0369 -6.92939,-0.87861 -9.48518,-1.5856 -7.75994,-2.14659 -15.68969,-6.63721 -21.64784,-12.2592 -3.36776,-3.17774 -7.11679,-8.16928 -9.50538,-12.65565 -0.93414,-1.75453 -3.32189,-7.1873 -3.32189,-7.55817 0,-0.075 1.16602,0.0683 2.59116,0.31837 3.8278,0.67175 9.49821,0.58333 14.20668,-0.22152 6.46606,-1.1053 6.90261,-1.37491 3.48575,-2.15277 -2.25962,-0.51442 -7.9743,-2.58415 -10.03872,-3.63581 -13.66457,-6.96102 -23.31493,-19.135831 -26.65888,-33.632631 -0.6665096,-2.88947 -1.6551596,-10.90248 -1.3791996,-11.17844 0.0774,-0.0774 1.3382096,0.39994 2.8017996,1.06074 4.78926,2.16231 7.719,3.10849 12.13221,3.91817 3.46077,0.63494 7.86281,0.97413 7.86281,0.60584 0,-0.13602 -1.0856,-1.0368 -2.41245,-2.00174 -7.68566,-5.58928 -14.69912,-15.46932 -17.48307,-24.62886 -3.0880096,-10.159936 -3.0639896,-21.225147 0.0669,-30.816377 0.95777,-2.934057 3.72322,-9.0573332 4.09056,-9.0573332 0.13271,0 0.71249,0.5945772 1.28841,1.3212792 4.07767,5.145275 12.90964,13.862158 18.85274,18.607092 1.41143,1.126868 2.64664,2.136166 2.74493,2.242886 0.51995,0.564563 4.92911,3.708395 8.22021,5.861198 6.51118,4.259145 7.44246,4.848415 7.66244,4.848415 0.11802,0 0.87793,0.41875 1.68868,0.93055 3.4269,2.16331 13.21378,6.77755 19.41964,9.15583 8.191106,3.13908 19.113577,6.04274 28.413369,7.55348 4.89557,0.79528 14.51238,1.79037 15.10498,1.56297 0.42964,-0.16486 0.40349,-0.80151 -0.17449,-4.24802 -2.5738,-15.34747 3.34222,-32.542571 14.98779,-43.56253 10.49808,-9.9341041 24.98984,-14.9913522 38.94695,-13.59147118 12.19012,1.22265308 21.51748,5.54316108 30.97748,14.34901818 l 1.37881,1.283462 2.91,-0.675288 c 7.84376,-1.820201 15.36074,-4.537072 22.65586,-8.1885311 3.61191,-1.80789 5.45089,-2.559526 5.45089,-2.227916 0,0.275246 -0.71534,2.031241 -1.58965,3.9022115 -3.28538,7.0305176 -8.58496,13.7853136 -14.41993,18.3794986 -1.51468,1.192586 -2.94821,2.325698 -3.18562,2.518024 -0.23742,0.192325 -0.57436,0.349684 -0.74876,0.349684 -0.1744,0 -0.61729,0.331713 -0.9842,0.737142 l -0.6671,0.73714 1.95196,-0.232823 c 6.55698,-0.782092 15.15951,-2.890996 21.0729,-5.166011 3.22548,-1.240911 4.79055,-1.768651 4.90518,-1.654023 0.22374,0.223739 -4.85389,6.743858 -8.10047,10.401722 -1.8557,2.09078 -4.66943,4.956874 -6.25273,6.369101 -1.58331,1.41222 -3.05411,2.72851 -3.26846,2.92508 -0.58906,0.54022 -2.99543,2.47532 -4.74239,3.81364 l -1.55455,1.19092 0.0493,5.36054 c 0.0677,7.36877 -1.13259,20.27559 -2.51788,27.0746 -0.80462,3.94906 -2.51954,11.23621 -3.00642,12.77511 -0.27986,0.88456 -0.77133,2.49287 -1.09215,3.574 -1.90603,6.423121 -5.57227,15.491881 -9.24715,22.873651 -5.38145,10.80978 -11.13727,19.46387 -20.4371,30.72796 -1.86737,2.26178 -11.34406,11.66108 -14.10034,13.98518 -4.0744,3.43555 -4.27063,3.59536 -6.58245,5.36067 -15.10227,11.53218 -35.84718,20.98536 -53.96752,24.59232 -14.950231,2.97593 -29.382779,3.86648 -43.781589,2.70154 z"
       id="path1085" />
  </g>
</svg>
